HIERARCHY
ROOT Hips
{
  OFFSET 26.204 25.127 -269.097
  CHANNELS 6 Xposition Yposition Zposition Zrotation Xrotation Yrotation
  JOINT LeftUpLeg
  {
    OFFSET 7.929 -7.474 2.223
    CHANNELS 6 Xposition Yposition Zposition Zrotation Xrotation Yrotation
    JOINT LeftLeg
    {
      OFFSET -0.000 -47.595 0.000
      CHANNELS 6 Xposition Yposition Zposition Zrotation Xrotation Yrotation
      JOINT LeftFoot
      {
        OFFSET -0.000 -40.190 -0.000
        CHANNELS 6 Xposition Yposition Zposition Zrotation Xrotation Yrotation
        End Site
        {
          OFFSET 0.000 -8.977 5.183
        }
      }
    }
  }
  JOINT RightUpLeg
  {
    OFFSET -7.647 -7.323 2.180
    CHANNELS 6 Xposition Yposition Zposition Zrotation Xrotation Yrotation
    JOINT RightLeg
    {
      OFFSET -0.000 -46.289 0.000
      CHANNELS 6 Xposition Yposition Zposition Zrotation Xrotation Yrotation
      JOINT RightFoot
      {
        OFFSET -0.000 -42.956 -0.000
        CHANNELS 6 Xposition Yposition Zposition Zrotation Xrotation Yrotation
        End Site
        {
          OFFSET 0.000 -8.605 4.968
        }
      }
    }
  }
  JOINT Spine
  {
    OFFSET 0.000 5.760 -5.760
    CHANNELS 6 Xposition Yposition Zposition Zrotation Xrotation Yrotation
    JOINT LeftShoulder
    {
      OFFSET -0.000 34.615 0.000
      CHANNELS 6 Xposition Yposition Zposition Zrotation Xrotation Yrotation
      JOINT LeftArm
      {
        OFFSET 20.403 0.000 -0.000
        CHANNELS 6 Xposition Yposition Zposition Zrotation Xrotation Yrotation
        JOINT LeftForeArm
        {
          OFFSET 25.310 0.000 0.000
          CHANNELS 6 Xposition Yposition Zposition Zrotation Xrotation Yrotation
          JOINT LeftHand
          {
            OFFSET 27.433 0.000 -0.000
            CHANNELS 6 Xposition Yposition Zposition Zrotation Xrotation Yrotation
            JOINT LeftHandThumb1
            {
            OFFSET 4.970 -0.620 3.390
            CHANNELS 6 Xposition Yposition Zposition Zrotation Xrotation Yrotation
              JOINT LeftHandThumb2
              {
              OFFSET 2.150 -0.000 0.000
              CHANNELS 6 Xposition Yposition Zposition Zrotation Xrotation Yrotation
                JOINT LeftHandThumb3
                {
                OFFSET 2.200 -0.000 0.000
                CHANNELS 6 Xposition Yposition Zposition Zrotation Xrotation Yrotation
                  JOINT LeftHandThumb4
                  {
                  OFFSET 1.700 -0.000 0.000
                  CHANNELS 6 Xposition Yposition Zposition Zrotation Xrotation Yrotation
                  }
                }
              }
            }
            JOINT LeftHandIndex1
            {
            OFFSET 8.730 0.680 2.070
            CHANNELS 6 Xposition Yposition Zposition Zrotation Xrotation Yrotation
              JOINT LeftHandIndex2
              {
              OFFSET 2.670 -0.000 0.000
              CHANNELS 6 Xposition Yposition Zposition Zrotation Xrotation Yrotation
                JOINT LeftHandIndex3
                {
                OFFSET 2.130 -0.000 0.000
                CHANNELS 6 Xposition Yposition Zposition Zrotation Xrotation Yrotation
                  JOINT LeftHandIndex4
                  {
                  OFFSET 1.800 -0.000 0.000
                  CHANNELS 6 Xposition Yposition Zposition Zrotation Xrotation Yrotation
                  }
                }
              }
            }
            JOINT LeftHandMiddle1
            {
            OFFSET 9.220 0.670 0.550
            CHANNELS 6 Xposition Yposition Zposition Zrotation Xrotation Yrotation
              JOINT LeftHandMiddle2
              {
              OFFSET 2.660 -0.000 0.000
              CHANNELS 6 Xposition Yposition Zposition Zrotation Xrotation Yrotation
                JOINT LeftHandMiddle3
                {
                OFFSET 2.280 -0.000 0.000
                CHANNELS 6 Xposition Yposition Zposition Zrotation Xrotation Yrotation
                  JOINT LeftHandMiddle4
                  {
                  OFFSET 1.500 -0.000 0.000
                  CHANNELS 6 Xposition Yposition Zposition Zrotation Xrotation Yrotation
                  }
                }
              }
            }
            JOINT LeftHandRing1
            {
            OFFSET 9.250 0.670 -1.130
            CHANNELS 6 Xposition Yposition Zposition Zrotation Xrotation Yrotation
              JOINT LeftHandRing2
              {
              OFFSET 2.470 -0.000 0.000
              CHANNELS 6 Xposition Yposition Zposition Zrotation Xrotation Yrotation
                JOINT LeftHandRing3
                {
                OFFSET 2.210 -0.000 0.000
                CHANNELS 6 Xposition Yposition Zposition Zrotation Xrotation Yrotation
                  JOINT LeftHandRing4
                  {
                  OFFSET 1.800 -0.000 0.000
                  CHANNELS 6 Xposition Yposition Zposition Zrotation Xrotation Yrotation
                  }
                }
              }
            }
            JOINT LeftHandPinky1
            {
            OFFSET 9.350 0.660 -2.720
            CHANNELS 6 Xposition Yposition Zposition Zrotation Xrotation Yrotation
              JOINT LeftHandPinky2
              {
              OFFSET 1.630 -0.000 0.000
              CHANNELS 6 Xposition Yposition Zposition Zrotation Xrotation Yrotation
                JOINT LeftHandPinky3
                {
                OFFSET 1.710 -0.000 0.000
                CHANNELS 6 Xposition Yposition Zposition Zrotation Xrotation Yrotation
                  JOINT LeftHandPinky4
                  {
                  OFFSET 1.800 -0.000 0.000
                  CHANNELS 6 Xposition Yposition Zposition Zrotation Xrotation Yrotation
                  }
                }
              }
            }
          }
        }
      }
    }
    JOINT RightShoulder
    {
      OFFSET -0.000 34.615 0.000
      CHANNELS 6 Xposition Yposition Zposition Zrotation Xrotation Yrotation
      JOINT RightArm
      {
        OFFSET -20.005 0.000 -0.000
        CHANNELS 6 Xposition Yposition Zposition Zrotation Xrotation Yrotation
        JOINT RightForeArm
        {
          OFFSET -26.117 0.000 0.000
          CHANNELS 6 Xposition Yposition Zposition Zrotation Xrotation Yrotation
          JOINT RightHand
          {
            OFFSET -25.822 0.000 -0.000
            CHANNELS 6 Xposition Yposition Zposition Zrotation Xrotation Yrotation
            JOINT RightHandThumb1
            {
            OFFSET -4.970 -0.620 3.390
            CHANNELS 6 Xposition Yposition Zposition Zrotation Xrotation Yrotation
              JOINT RightHandThumb2
              {
              OFFSET -2.150 0.000 0.000
              CHANNELS 6 Xposition Yposition Zposition Zrotation Xrotation Yrotation
                JOINT RightHandThumb3
                {
                OFFSET -2.200 0.000 0.000
                CHANNELS 6 Xposition Yposition Zposition Zrotation Xrotation Yrotation
                  JOINT RightHandThumb4
                  {
                  OFFSET -1.700 0.000 0.000
                  CHANNELS 6 Xposition Yposition Zposition Zrotation Xrotation Yrotation
                  }
                }
              }
            }
            JOINT RightHandIndex1
            {
            OFFSET -8.730 0.680 2.070
            CHANNELS 6 Xposition Yposition Zposition Zrotation Xrotation Yrotation
              JOINT RightHandIndex2
              {
              OFFSET -2.670 0.000 0.000
              CHANNELS 6 Xposition Yposition Zposition Zrotation Xrotation Yrotation
                JOINT RightHandIndex3
                {
                OFFSET -2.130 0.000 0.000
                CHANNELS 6 Xposition Yposition Zposition Zrotation Xrotation Yrotation
                  JOINT RightHandIndex4
                  {
                  OFFSET -1.800 0.000 0.000
                  CHANNELS 6 Xposition Yposition Zposition Zrotation Xrotation Yrotation
                  }
                }
              }
            }
            JOINT RightHandMiddle1
            {
            OFFSET -9.220 0.670 0.550
            CHANNELS 6 Xposition Yposition Zposition Zrotation Xrotation Yrotation
              JOINT RightHandMiddle2
              {
              OFFSET -2.660 0.000 0.000
              CHANNELS 6 Xposition Yposition Zposition Zrotation Xrotation Yrotation
                JOINT RightHandMiddle3
                {
                OFFSET -2.280 0.000 0.000
                CHANNELS 6 Xposition Yposition Zposition Zrotation Xrotation Yrotation
                  JOINT RightHandMiddle4
                  {
                  OFFSET -1.500 0.000 0.000
                  CHANNELS 6 Xposition Yposition Zposition Zrotation Xrotation Yrotation
                  }
                }
              }
            }
            JOINT RightHandRing1
            {
            OFFSET -9.250 0.670 -1.130
            CHANNELS 6 Xposition Yposition Zposition Zrotation Xrotation Yrotation
              JOINT RightHandRing2
              {
              OFFSET -2.470 0.000 0.000
              CHANNELS 6 Xposition Yposition Zposition Zrotation Xrotation Yrotation
                JOINT RightHandRing3
                {
                OFFSET -2.210 0.000 0.000
                CHANNELS 6 Xposition Yposition Zposition Zrotation Xrotation Yrotation
                  JOINT RightHandRing4
                  {
                  OFFSET -1.800 0.000 0.000
                  CHANNELS 6 Xposition Yposition Zposition Zrotation Xrotation Yrotation
                  }
                }
              }
            }
            JOINT RightHandPinky1
            {
            OFFSET -9.350 0.660 -2.720
            CHANNELS 6 Xposition Yposition Zposition Zrotation Xrotation Yrotation
              JOINT RightHandPinky2
              {
              OFFSET -1.630 0.000 0.000
              CHANNELS 6 Xposition Yposition Zposition Zrotation Xrotation Yrotation
                JOINT RightHandPinky3
                {
                OFFSET -1.710 0.000 0.000
                CHANNELS 6 Xposition Yposition Zposition Zrotation Xrotation Yrotation
                  JOINT RightHandPinky4
                  {
                  OFFSET -1.800 0.000 0.000
                  CHANNELS 6 Xposition Yposition Zposition Zrotation Xrotation Yrotation
                  }
                }
              }
            }
          }
        }
      }
    }
    JOINT Neck
    {
      OFFSET -0.000 34.615 0.000
      CHANNELS 6 Xposition Yposition Zposition Zrotation Xrotation Yrotation
      JOINT Head
      {
        OFFSET -0.000 20.283 -0.000
        CHANNELS 6 Xposition Yposition Zposition Zrotation Xrotation Yrotation
        End Site
        {
          OFFSET -0.000 0.081 -0.000
        }
      }
    }
  }
}
MOTION
Frames:	5
Frame Time:	0.0333333
24.149 23.4951 -256.736 -1.58405 2.39874 -6.32806 7.9141 -7.53174 2.04041 3.36061 5.81447 -2.30145 3.72529e-06 -49.1352 0 -3.52315 -7.29115 -0.447681 -1.49012e-06 -38.3396 2.38419e-05 9.93448 -11.0793 7.61395 -7.7532 -7.725 1.48196 -2.80804 3.30381 -1.83896 2.98023e-06 -49.0991 4.76837e-05 7.51204 1.83392 -0.241793 5.96046e-06 -38.6504 0 -8.59215 -6.04904 -5.8619 -3.72529e-06 6.29156 -6.29163 0.0737054 -3.78685 -0.0198 2.6077e-06 34.6158 -2.38419e-05 -26.5446 1.26999e-05 -2.76577 19.7759 0 4.76837e-05 -50.9603 32.9056 -0.137114 27.0495 -1.19209e-05 4.76837e-05 -2.3672e-07 1.70755e-06 -21.7944 24.3997 0 -1.19209e-05 -5.72116 0.00112701 3.70997 0.0062 0.0497 0.0339 0 0 0 0 0.0215 0 0 0 0 0 0.022 0 0 0 0 0 0.017 0 0 0 0 -0.0068 0.0873 0.0207 0 0 0 0 0.0267 0 0 0 0 0 0.0213 0 0 0 0 0 0.018 0 0 0 0 -0.0067 0.0922 0.0055 0 0 0 0 0.0266 0 0 0 0 0 0.0228 0 0 0 0 0 0.015 0 0 0 0 -0.0067 0.0925 -0.0113 0 0 0 0 0.0247 0 0 0 0 0 0.0221 0 0 0 0 0 0.018 0 0 0 0 -0.0066 0.0935 -0.0272 0 0 0 0 0.0163 0 0 0 0 0 0.0171 0 0 0 0 0 0.018 0 0 0 0 2.6077e-06 34.6158 -2.38419e-05 27.2242 -2.56132e-06 2.851 -19.1851 -2.38419e-05 -2.38419e-05 52.7657 21.3118 1.86379 -28.6887 5.96046e-06 7.15256e-05 2.46444e-06 -1.70755e-06 20.5659 -24.4954 1.19209e-05 -7.15256e-05 8.94396 0.0796411 2.77487 -0.0062 0.0497 0.0339 0 0 0 0 0.0215 0 0 0 0 0 0.022 0 0 0 0 0 0.017 0 0 0 0 0.0068 0.0873 0.0207 0 0 0 0 0.0267 0 0 0 0 0 0.0213 0 0 0 0 0 0.018 0 0 0 0 0.0067 0.0922 0.0055 0 0 0 0 0.0266 0 0 0 0 0 0.0228 0 0 0 0 0 0.015 0 0 0 0 0.0067 0.0925 -0.0113 0 0 0 0 0.0247 0 0 0 0 0 0.0221 0 0 0 0 0 0.018 0 0 0 0 0.0066 0.0935 -0.0272 0 0 0 0 0.0163 0 0 0 0 0 0.0171 0 0 0 0 0 0.018 0 0 0 0 2.6077e-06 34.6158 -2.38419e-05 -1.75146 14.9306 0.451393 -5.21541e-06 21.5532 2.38419e-05 9.28478e-06 -9.39151e-06 4.26887e-07 
24.149 23.4951 -256.736 -1.58405 2.39874 -6.32806 7.9141 -7.53174 2.04041 3.36061 5.81447 -2.30145 3.72529e-06 -49.1352 0 -3.52315 -7.29115 -0.447681 -1.49012e-06 -38.3396 2.38419e-05 9.93448 -11.0793 7.61395 -7.7532 -7.725 1.48196 -2.80804 3.30381 -1.83896 2.98023e-06 -49.0991 4.76837e-05 7.51204 1.83392 -0.241793 5.96046e-06 -38.6504 0 -8.59215 -6.04904 -5.8619 -3.72529e-06 6.29156 -6.29163 0.0737054 -3.78685 -0.0198 2.6077e-06 34.6158 -2.38419e-05 -26.5446 1.26999e-05 -2.76577 19.7759 0 4.76837e-05 -50.9603 32.9056 -0.137114 27.0495 -1.19209e-05 4.76837e-05 -2.3672e-07 1.70755e-06 -21.7944 24.3997 0 -1.19209e-05 -5.72116 0.00112701 3.70997 0.0062 0.0497 0.0339 0 0 0 0 0.0215 0 0 0 0 0 0.022 0 0 0 0 0 0.017 0 0 0 0 -0.0068 0.0873 0.0207 0 0 0 0 0.0267 0 0 0 0 0 0.0213 0 0 0 0 0 0.018 0 0 0 0 -0.0067 0.0922 0.0055 0 0 0 0 0.0266 0 0 0 0 0 0.0228 0 0 0 0 0 0.015 0 0 0 0 -0.0067 0.0925 -0.0113 0 0 0 0 0.0247 0 0 0 0 0 0.0221 0 0 0 0 0 0.018 0 0 0 0 -0.0066 0.0935 -0.0272 0 0 0 0 0.0163 0 0 0 0 0 0.0171 0 0 0 0 0 0.018 0 0 0 0 2.6077e-06 34.6158 -2.38419e-05 27.2242 -2.56132e-06 2.851 -19.1851 -2.38419e-05 -2.38419e-05 52.7657 21.3118 1.86379 -28.6887 5.96046e-06 7.15256e-05 2.46444e-06 -1.70755e-06 20.5659 -24.4954 1.19209e-05 -7.15256e-05 8.94396 0.0796411 2.77487 -0.0062 0.0497 0.0339 0 0 0 0 0.0215 0 0 0 0 0 0.022 0 0 0 0 0 0.017 0 0 0 0 0.0068 0.0873 0.0207 0 0 0 0 0.0267 0 0 0 0 0 0.0213 0 0 0 0 0 0.018 0 0 0 0 0.0067 0.0922 0.0055 0 0 0 0 0.0266 0 0 0 0 0 0.0228 0 0 0 0 0 0.015 0 0 0 0 0.0067 0.0925 -0.0113 0 0 0 0 0.0247 0 0 0 0 0 0.0221 0 0 0 0 0 0.018 0 0 0 0 0.0066 0.0935 -0.0272 0 0 0 0 0.0163 0 0 0 0 0 0.0171 0 0 0 0 0 0.018 0 0 0 0 2.6077e-06 34.6158 -2.38419e-05 -1.75146 14.9306 0.451393 -5.21541e-06 21.5532 2.38419e-05 9.28478e-06 -9.39151e-06 4.26887e-07 
24.149 23.4951 -256.736 -1.58405 2.39874 -6.32806 7.9141 -7.53174 2.04041 3.36061 5.81447 -2.30145 3.72529e-06 -49.1352 0 -3.52315 -7.29115 -0.447681 -1.49012e-06 -38.3396 2.38419e-05 9.93448 -11.0793 7.61395 -7.7532 -7.725 1.48196 -2.80804 3.30381 -1.83896 2.98023e-06 -49.0991 4.76837e-05 7.51204 1.83392 -0.241793 5.96046e-06 -38.6504 0 -8.59215 -6.04904 -5.8619 -3.72529e-06 6.29156 -6.29163 0.0737054 -3.78685 -0.0198 2.6077e-06 34.6158 -2.38419e-05 -26.5446 1.26999e-05 -2.76577 19.7759 0 4.76837e-05 -50.9603 32.9056 -0.137114 27.0495 -1.19209e-05 4.76837e-05 -2.3672e-07 1.70755e-06 -21.7944 24.3997 0 -1.19209e-05 -5.72116 0.00112701 3.70997 0.0062 0.0497 0.0339 0 0 0 0 0.0215 0 0 0 0 0 0.022 0 0 0 0 0 0.017 0 0 0 0 -0.0068 0.0873 0.0207 0 0 0 0 0.0267 0 0 0 0 0 0.0213 0 0 0 0 0 0.018 0 0 0 0 -0.0067 0.0922 0.0055 0 0 0 0 0.0266 0 0 0 0 0 0.0228 0 0 0 0 0 0.015 0 0 0 0 -0.0067 0.0925 -0.0113 0 0 0 0 0.0247 0 0 0 0 0 0.0221 0 0 0 0 0 0.018 0 0 0 0 -0.0066 0.0935 -0.0272 0 0 0 0 0.0163 0 0 0 0 0 0.0171 0 0 0 0 0 0.018 0 0 0 0 2.6077e-06 34.6158 -2.38419e-05 27.2242 -2.56132e-06 2.851 -19.1851 -2.38419e-05 -2.38419e-05 52.7657 21.3118 1.86379 -28.6887 5.96046e-06 7.15256e-05 2.46444e-06 -1.70755e-06 20.5659 -24.4954 1.19209e-05 -7.15256e-05 8.94396 0.0796411 2.77487 -0.0062 0.0497 0.0339 0 0 0 0 0.0215 0 0 0 0 0 0.022 0 0 0 0 0 0.017 0 0 0 0 0.0068 0.0873 0.0207 0 0 0 0 0.0267 0 0 0 0 0 0.0213 0 0 0 0 0 0.018 0 0 0 0 0.0067 0.0922 0.0055 0 0 0 0 0.0266 0 0 0 0 0 0.0228 0 0 0 0 0 0.015 0 0 0 0 0.0067 0.0925 -0.0113 0 0 0 0 0.0247 0 0 0 0 0 0.0221 0 0 0 0 0 0.018 0 0 0 0 0.0066 0.0935 -0.0272 0 0 0 0 0.0163 0 0 0 0 0 0.0171 0 0 0 0 0 0.018 0 0 0 0 2.6077e-06 34.6158 -2.38419e-05 -1.75146 14.9306 0.451393 -5.21541e-06 21.5532 2.38419e-05 9.28478e-06 -9.39151e-06 4.26887e-07 
24.5398 23.4838 -256.855 -1.58456 2.83444 -7.01005 7.9276 -7.52166 2.00367 2.96799 5.31058 -2.15235 -4.47035e-06 -49.1791 7.15256e-05 -3.13988 -7.31606 -0.400234 -5.21541e-06 -38.2559 2.38419e-05 10.0523 -11.049 7.70098 -7.73604 -7.73195 1.46868 -3.2278 2.22526 -1.80397 -4.47035e-06 -49.0414 -2.38419e-05 7.89482 2.72459 -0.37767 5.96046e-06 -38.7415 2.38419e-05 -8.6656 -5.73968 -5.87066 -4.47035e-06 6.27686 -6.27689 0.124235 -3.75992 -0.0689964 -2.98023e-06 34.6158 0 -26.7582 1.32335e-05 -2.74412 19.7233 5.96046e-06 2.38419e-05 -50.4185 33.7883 -0.409331 27.0555 0 -4.76837e-05 -5.0336e-06 -3.41509e-06 -21.6894 24.3671 1.19209e-05 -2.38419e-05 -5.67783 0.00316257 3.42276 0.0062 0.0497 0.0339 0 0 0 0 0.0215 0 0 0 0 0 0.022 0 0 0 0 0 0.017 0 0 0 0 -0.0068 0.0873 0.0207 0 0 0 0 0.0267 0 0 0 0 0 0.0213 0 0 0 0 0 0.018 0 0 0 0 -0.0067 0.0922 0.0055 0 0 0 0 0.0266 0 0 0 0 0 0.0228 0 0 0 0 0 0.015 0 0 0 0 -0.0067 0.0925 -0.0113 0 0 0 0 0.0247 0 0 0 0 0 0.0221 0 0 0 0 0 0.018 0 0 0 0 -0.0066 0.0935 -0.0272 0 0 0 0 0.0163 0 0 0 0 0 0.0171 0 0 0 0 0 0.018 0 0 0 0 -2.98023e-06 34.6158 0 27.0792 -2.56132e-06 2.81519 -19.2258 5.96046e-06 0 53.1602 20.3255 1.64739 -28.5852 0 7.15256e-05 3.66725e-06 0 21.3709 -24.4833 -5.96046e-06 0 8.20026 0.119117 4.12093 -0.0062 0.0497 0.0339 0 0 0 0 0.0215 0 0 0 0 0 0.022 0 0 0 0 0 0.017 0 0 0 0 0.0068 0.0873 0.0207 0 0 0 0 0.0267 0 0 0 0 0 0.0213 0 0 0 0 0 0.018 0 0 0 0 0.0067 0.0922 0.0055 0 0 0 0 0.0266 0 0 0 0 0 0.0228 0 0 0 0 0 0.015 0 0 0 0 0.0067 0.0925 -0.0113 0 0 0 0 0.0247 0 0 0 0 0 0.0221 0 0 0 0 0 0.018 0 0 0 0 0.0066 0.0935 -0.0272 0 0 0 0 0.0163 0 0 0 0 0 0.0171 0 0 0 0 0 0.018 0 0 0 0 -2.98023e-06 34.6158 0 -1.68168 15.2787 0.443267 -3.72529e-06 21.4454 0 9.92512e-06 -1.19528e-05 1.70755e-06 
24.8217 23.4761 -256.986 -1.60628 3.20717 -7.63339 7.93681 -7.50828 1.97341 2.78256 4.88601 -2.05881 0 -49.1405 0 -2.96468 -7.35064 -0.379639 -8.9407e-06 -38.2528 -4.76837e-05 10.1539 -11.018 7.77456 -7.71882 -7.73256 1.45466 -3.47805 1.33129 -1.80251 2.98023e-06 -49.0199 -2.38419e-05 8.14515 3.41291 -0.488169 -1.19209e-05 -38.7835 -2.38419e-05 -8.6736 -5.6211 -5.86249 1.49012e-06 6.26399 -6.26402 0.198516 -3.75174 -0.11618 -1.2666e-05 34.6158 2.38419e-05 -26.8284 1.34469e-05 -2.71262 19.748 -1.78814e-05 -4.76837e-05 -50.0925 34.8133 -0.696172 27.0465 3.57628e-05 7.15256e-05 5.2652e-06 1.70755e-06 -21.5675 24.3374 -1.19209e-05 -1.19209e-05 -5.62026 0.00501208 3.19035 0.0062 0.0497 0.0339 0 0 0 0 0.0215 0 0 0 0 0 0.022 0 0 0 0 0 0.017 0 0 0 0 -0.0068 0.0873 0.0207 0 0 0 0 0.0267 0 0 0 0 0 0.0213 0 0 0 0 0 0.018 0 0 0 0 -0.0067 0.0922 0.0055 0 0 0 0 0.0266 0 0 0 0 0 0.0228 0 0 0 0 0 0.015 0 0 0 0 -0.0067 0.0925 -0.0113 0 0 0 0 0.0247 0 0 0 0 0 0.0221 0 0 0 0 0 0.018 0 0 0 0 -0.0066 0.0935 -0.0272 0 0 0 0 0.0163 0 0 0 0 0 0.0171 0 0 0 0 0 0.018 0 0 0 0 -1.2666e-05 34.6158 2.38419e-05 27.0985 -2.13443e-06 2.8034 -19.1089 0 -7.15256e-05 53.0782 19.8874 1.43944 -28.5605 2.38419e-05 7.15256e-05 -4.6185e-06 3.41509e-06 22.1715 -24.4798 0 4.76837e-05 7.69135 0.128261 4.84839 -0.0062 0.0497 0.0339 0 0 0 0 0.0215 0 0 0 0 0 0.022 0 0 0 0 0 0.017 0 0 0 0 0.0068 0.0873 0.0207 0 0 0 0 0.0267 0 0 0 0 0 0.0213 0 0 0 0 0 0.018 0 0 0 0 0.0067 0.0922 0.0055 0 0 0 0 0.0266 0 0 0 0 0 0.0228 0 0 0 0 0 0.015 0 0 0 0 0.0067 0.0925 -0.0113 0 0 0 0 0.0247 0 0 0 0 0 0.0221 0 0 0 0 0 0.018 0 0 0 0 0.0066 0.0935 -0.0272 0 0 0 0 0.0163 0 0 0 0 0 0.0171 0 0 0 0 0 0.018 0 0 0 0 -1.2666e-05 34.6158 2.38419e-05 -1.75742 15.6168 0.473238 -6.70552e-06 21.3571 -2.38419e-05 9.60495e-06 -1.02453e-05 0 
